# xmcd
#
# Track frame offsets: 
#        150
#        15642
#        39262
#        55065
#        68070
#        85812
#        103127
#        117785
#        135235
#        157309
#        181082
#        191284
#
# Disc length: 2740 seconds
#
# Revision: 3
# Processed by: cddbd v1.5.2PL0 Copyright (c) Steve Scherf et al.
# Submitted via: ExactAudioCopy v0.99pb4
#
DISCID=900ab20c
DTITLE=Дикий Мед - Веселая Вдова
DYEAR=1992
DGENRE=Blues
TTITLE0=Веселая Вдова
TTITLE1=Блудный Блюз
TTITLE2=Худенькая Лиза
TTITLE3=Пешеход
TTITLE4=К Черту Блюз!
TTITLE5=Пивная Королева
TTITLE6=Стерва
TTITLE7=Весна
TTITLE8=Мамина Дочка
TTITLE9=Солнечный Стриптиз
TTITLE10=Бежать От Юбок!
TTITLE11=Не Спрашивай Меня, Когда Я Вернусь...
EXTD=
EXTT0=
EXTT1=
EXTT2=
EXTT3=
EXTT4=
EXTT5=
EXTT6=
EXTT7=
EXTT8=
EXTT9=
EXTT10=
EXTT11=
PLAYORDER=
